# xmcd
#
# Track frame offsets: 
#        150
#        18053
#        31857
#        48527
#        66190
#        86035
#        106438
#        125748
#        144455
#        165211
#        183043
#        197924
#        216270
#        234302
#        253162
#
# Disc length: 3630 seconds
#
# Revision: 0
# Processed by: cddbd v1.5.2PL0 Copyright (c) Steve Scherf et al.
# Submitted via: ExactAudioCopy v1.0b3
#
DISCID=cb0e2c0f
DTITLE=Eddie Bush - Calloused Hands
DYEAR=2012
DGENRE=Country
TTITLE0=Calloused Hands
TTITLE1=She Goes 18
TTITLE2=Shameless
TTITLE3=Trouble
TTITLE4=Gonna Be A Good Day
TTITLE5=Broken Wheel
TTITLE6=Roller Coaster Ride
TTITLE7=The Urge Of Sleep
TTITLE8=We Shared Time
TTITLE9=Over The Moon
TTITLE10=Dream Vacation
TTITLE11=When I Grow Up
TTITLE12=Still In The Wind
TTITLE13=Life In The City
TTITLE14=When This Month Is Over
EXTD=
EXTT0=
EXTT1=
EXTT2=
EXTT3=
EXTT4=
EXTT5=
EXTT6=
EXTT7=
EXTT8=
EXTT9=
EXTT10=
EXTT11=
EXTT12=
EXTT13=
EXTT14=
PLAYORDER=
